<svg width="44" height="44" viewBox="0 0 69 57" fill="none" xmlns="http://www.w3.org/2000/svg">
<path fill-rule="evenodd" clip-rule="evenodd" d="M0 53.125C0 52.2962 0.329241 51.5013 0.915292 50.9153C1.50134 50.3292 2.2962 50 3.125 50H65.625C66.4538 50 67.2487 50.3292 67.8347 50.9153C68.4208 51.5013 68.75 52.2962 68.75 53.125C68.75 53.9538 68.4208 54.7487 67.8347 55.3347C67.2487 55.9208 66.4538 56.25 65.625 56.25H3.125C2.2962 56.25 1.50134 55.9208 0.915292 55.3347C0.329241 54.7487 0 53.9538 0 53.125ZM0 28.125C0 27.2962 0.329241 26.5013 0.915292 25.9153C1.50134 25.3292 2.2962 25 3.125 25H65.625C66.4538 25 67.2487 25.3292 67.8347 25.9153C68.4208 26.5013 68.75 27.2962 68.75 28.125C68.75 28.9538 68.4208 29.7487 67.8347 30.3347C67.2487 30.9208 66.4538 31.25 65.625 31.25H3.125C2.2962 31.25 1.50134 30.9208 0.915292 30.3347C0.329241 29.7487 0 28.9538 0 28.125ZM0 3.125C0 2.2962 0.329241 1.50134 0.915292 0.915292C1.50134 0.329241 2.2962 0 3.125 0H65.625C66.4538 0 67.2487 0.329241 67.8347 0.915292C68.4208 1.50134 68.75 2.2962 68.75 3.125C68.75 3.9538 68.4208 4.74866 67.8347 5.33471C67.2487 5.92076 66.4538 6.25 65.625 6.25H3.125C2.2962 6.25 1.50134 5.92076 0.915292 5.33471C0.329241 4.74866 0 3.9538 0 3.125Z" fill="black"/>
</svg>
